P2
5 4
20
1 3 15 5 6 
1 3 15 5 6 
1 3 15 5 6 
5 10 15 15 20 
