P2
4 4
20
1 3 5 6 
1 3 5 6 
1 3 5 6 
5 10 15 20 
